<?xml version="1.0" encoding="UTF-8"?>
<svg version="1.1" xmlns="http://www.w3.org/2000/svg" width="494" height="479">
<path d="M0 0 C0.99 0 1.98 0 3 0 C-1.40718105 9.87491368 -10.15955097 18.45877095 -17.23364258 26.53222656 C-21.95382449 31.91991602 -26.49212973 37.43310823 -31 43 C-32.65908945 45.00652229 -34.32791468 47.00428526 -36 49 C-34.56772375 53.13852452 -32.52057457 56.21222014 -29.875 59.6875 C-26 64.78291815 -26 64.78291815 -26 67 C-25.34 67.33 -24.68 67.66 -24 68 C-22.71182312 70.12579424 -21.525714 72.23828362 -20.375 74.4375 C-19.84821655 75.44079346 -19.84821655 75.44079346 -19.31079102 76.46435547 C-13.32000289 88.04022898 -8.22219943 99.83077766 -4.0625 112.1875 C-3.76786865 113.06035645 -3.4732373 113.93321289 -3.16967773 114.83251953 C-1.627978 119.564306 -0.52919303 124.04970067 0 129 C0.66 129 1.32 129 2 129 C2.33 128.34 2.66 127.68 3 127 C3 127.99 3 128.98 3 130 C2.34 130 1.68 130 1 130 C1 130.99 1 131.98 1 133 C1.66 133.33 2.32 133.66 3 134 C3.34375 136.01171875 3.34375 136.01171875 3.5 138.6875 C3.82149414 143.12526734 4.33005734 147.47603828 5 151.875 C9.22189697 181.05019849 7.65295423 211.50335558 0 240 C-0.17756836 240.68497559 -0.35513672 241.36995117 -0.53808594 242.07568359 C-5.31663628 260.32531658 -12.67803355 277.349423 -21.80224609 293.82958984 C-22.6148536 295.30208898 -23.41427766 296.78192594 -24.20166016 298.26806641 C-27.04279807 303.56615965 -30.26102292 308.29739286 -34 313 C-34.53689453 313.67901367 -35.07378906 314.35802734 -35.62695312 315.05761719 C-42.02101969 323.06328767 -48.47311425 330.86186267 -55.9140625 337.921875 C-58.07237038 339.98704031 -58.07237038 339.98704031 -59.95703125 342.5 C-62.1238525 345.15155947 -64.38490729 347.12054482 -67.0625 349.25 C-71.32583446 352.6489215 -71.32583446 352.6489215 -75.49609375 356.16015625 C-113.86076946 389.13821602 -165.11333456 404.68690506 -215 406 C-215.6894873 406.02191406 -216.37897461 406.04382813 -217.08935547 406.06640625 C-274.94460334 407.73490655 -333.94954855 387.9598274 -376.57421875 348.234375 C-378.5621662 346.40328653 -380.57490921 344.6821566 -382.6875 343 C-383.450625 342.34 -384.21375 341.68 -385 341 C-385 340.34 -385 339.68 -385 339 C-385.66 339 -386.32 339 -387 339 C-388.37073786 337.36395804 -389.70055256 335.69321939 -391 334 C-391.98808231 332.98822267 -392.98565504 331.98544624 -394 331 C-388.13727049 325.62053236 -382.15946016 320.44868253 -375.9765625 315.44140625 C-372.65215635 312.71469517 -369.38401965 309.92919978 -366.125 307.125 C-356.76991302 299.07857622 -347.37261443 291.09769466 -337.8046875 283.3046875 C-332.48387304 278.93243049 -327.24733664 274.45992856 -322 270 C-309.80137712 259.63188559 -309.80137712 259.63188559 -303.625 254.625 C-299.17183739 251.0027482 -294.8265049 247.27132432 -290.5 243.5 C-285.32065609 238.98527365 -280.08164603 234.56762424 -274.7421875 230.2421875 C-271.62999959 227.69746405 -268.56270126 225.10385619 -265.5 222.5 C-261.55353876 219.14547904 -257.58357765 215.82778038 -253.5625 212.5625 C-248.70235879 208.60788728 -243.94773514 204.54133047 -239.20263672 200.45043945 C-235.57370935 197.32860457 -231.90549626 194.26599697 -228.1875 191.25 C-224.88692907 188.57099645 -221.66107206 185.84216744 -218.5 183 C-214.44693577 179.35582898 -210.25177541 175.91752411 -206.01953125 172.484375 C-202.6383919 169.70248027 -199.31602648 166.85884543 -196 164 C-190.98418762 159.67815246 -185.90824304 155.44520481 -180.76953125 151.26953125 C-175.45558334 146.91494206 -170.23473234 142.44921565 -165 138 C-158.89111965 132.80780978 -152.78489359 127.61876419 -146.5625 122.5625 C-141.13999847 118.14737176 -135.83872545 113.59987523 -130.5390625 109.0390625 C-126.67910808 105.71878494 -122.79067074 102.43288446 -118.89941406 99.14941406 C-115.47414108 96.25589965 -112.0666014 93.34271798 -108.66796875 90.41796875 C-103.12222416 85.64548702 -97.52475116 80.95538624 -91.84375 76.34375 C-87.90843967 73.10036237 -84.05180698 69.76853203 -80.18920898 66.43920898 C-76.68764698 63.42754991 -73.15213443 60.4694105 -69.5625 57.5625 C-65.25390433 54.0653041 -61.05404783 50.46197003 -56.875 46.8125 C-49.9521358 40.77045065 -42.88831626 34.9125172 -35.77734375 29.09375 C-34.81803955 28.30677734 -34.81803955 28.30677734 -33.83935547 27.50390625 C-32.64480822 26.52721246 -31.44612591 25.55554644 -30.24267578 24.58984375 C-27.67469993 22.50749116 -25.85223932 20.77835898 -24 18 C-23.34 18 -22.68 18 -22 18 C-20.27226707 16.69755517 -18.59220579 15.3315489 -16.9375 13.9375 C-13.29356697 10.907282 -9.65246452 7.88052384 -5.9375 4.9375 C-5.22464844 4.36902344 -4.51179688 3.80054687 -3.77734375 3.21484375 C-2 2 -2 2 0 2 C0 1.34 0 0.68 0 0 Z M-116.28759766 138.25 C-116.82433105 138.8275 -117.36106445 139.405 -117.9140625 140 C-118.80291138 140.95362427 -118.80291138 140.95362427 -119.7097168 141.92651367 C-120.65778198 142.9528894 -120.65778198 142.9528894 -121.625 144 C-122.26800049 144.69262939 -122.91100098 145.38525879 -123.57348633 146.09887695 C-127.1901267 150.00576707 -130.75758002 153.94488413 -134.23046875 157.98046875 C-136.60884497 160.6948628 -139.05512354 163.34569125 -141.5 166 C-145.14673786 169.96122831 -148.74329245 173.957915 -152.2734375 178.0234375 C-157.12045562 183.5722863 -162.08515238 189.01548644 -167.09399414 194.41821289 C-170.97806642 198.6152231 -174.73854835 202.84340276 -178.3125 207.3125 C-183.16554079 213.34601017 -188.46266962 218.92409575 -193.76953125 224.5546875 C-196.7166166 227.68443995 -199.5747844 230.87773515 -202.3828125 234.1328125 C-207.8271662 240.41880542 -213.47457568 246.52479066 -219.125 252.625 C-222.91542257 256.71790019 -226.6554324 260.8420533 -230.30859375 265.05859375 C-232.26840338 267.30807501 -234.25591963 269.53083824 -236.25 271.75 C-236.99765625 272.58273437 -237.7453125 273.41546875 -238.515625 274.2734375 C-240.3218982 276.25579393 -242.14161105 278.21630112 -243.984375 280.1640625 C-244.73605957 280.96505371 -244.73605957 280.96505371 -245.50292969 281.78222656 C-246.48188988 282.82376868 -247.46671054 283.85984129 -248.45800781 284.88964844 C-250.87293107 287.46823628 -252.59251028 289.41748621 -253 293 C-219.59062889 299.50194615 -187.17648184 297.97366304 -158 279 C-154.52113607 276.4850407 -151.24781072 273.80442359 -148 271 C-147.26523437 270.40960938 -146.53046875 269.81921875 -145.7734375 269.2109375 C-122.31316201 249.72979001 -110.15077017 218.6468832 -107.3125 188.94921875 C-105.88661199 170.92955897 -108.68204442 154.17171918 -114 137 C-115.17950746 136.88390772 -115.17950746 136.88390772 -116.28759766 138.25 Z " fill="#009DFD" transform="translate(479,63)"/>
<path d="M0 0 C2.69871689 2.40141087 4.80312151 4.02695021 8.13549805 5.55688477 C10.79174805 7.02172852 10.79174805 7.02172852 11.96362305 9.41235352 C11.79174805 12.02172852 11.79174805 12.02172852 9.86987305 14.38110352 C8.9365918 15.17000977 8.00331055 15.95891602 7.04174805 16.77172852 C6.53877197 17.20509521 6.0357959 17.63846191 5.51757812 18.08496094 C1.33908615 21.65879978 -2.96800612 25.08179886 -7.24731445 28.53344727 C-11.9892519 32.51842636 -16.46939942 36.77721358 -20.9855957 41.01391602 C-24.02619527 43.86398422 -27.1317362 46.62661662 -30.28637695 49.34985352 C-32.6193027 51.37930924 -34.91336441 53.44937552 -37.20825195 55.52172852 C-40.81956937 58.78072229 -44.46013666 62.00101033 -48.13012695 65.19360352 C-51.42539215 68.09244583 -54.66674897 71.05080542 -57.91137695 74.00610352 C-63.6268566 79.02172852 -63.6268566 79.02172852 -66.08325195 79.02172852 C-69.76076775 77.29113284 -73.3665895 74.70505342 -75.20825195 71.02172852 C-76.52180813 70.3168935 -77.86202291 69.66195471 -79.20825195 69.02172852 C-80.98564774 68.00023668 -82.7627226 66.97816983 -84.53637695 65.95019531 C-116.59813826 47.49097277 -151.98507225 43.40907812 -187.76538086 52.87011719 C-219.2304814 61.83868268 -244.45137608 83.28294608 -260.24731445 111.64282227 C-274.57518137 138.23545044 -276.61057166 169.18169089 -268.20825195 198.02172852 C-264.38628044 210.64491702 -258.56492408 222.56513113 -250.87231445 233.29516602 C-250.32317383 234.19493164 -249.7740332 235.09469727 -249.20825195 236.02172852 C-250.44250718 239.72449421 -251.83070744 240.52523422 -254.89575195 242.89672852 C-259.5322506 246.58908931 -263.89995829 250.45281734 -268.20825195 254.52172852 C-273.14263357 259.16915748 -278.20308717 263.54105407 -283.49731445 267.77954102 C-287.0270721 270.69896593 -290.36732041 273.80678209 -293.71728516 276.92749023 C-297.0500407 280.01279342 -300.4798714 282.92352364 -304.02075195 285.77172852 C-307.76372769 288.78541385 -311.20503617 291.89992264 -314.54418945 295.34985352 C-316.92237399 297.73920323 -319.46256279 299.91812491 -322.02075195 302.11157227 C-323.64980605 303.53408558 -325.2495998 304.99024399 -326.83325195 306.46313477 C-327.72012695 307.2868457 -328.60700195 308.11055664 -329.52075195 308.95922852 C-330.75245117 310.11745117 -330.75245117 310.11745117 -332.0090332 311.29907227 C-334.20825195 313.02172852 -334.20825195 313.02172852 -337.20825195 313.02172852 C-339.1184082 311.07250977 -339.1184082 311.07250977 -341.27075195 308.33422852 C-342.46571289 306.81829102 -342.46571289 306.81829102 -343.68481445 305.27172852 C-344.10021484 304.73547852 -344.51561523 304.19922852 -344.94360352 303.64672852 C-346.1694279 302.07161518 -347.41897377 300.51505247 -348.66918945 298.95922852 C-385.22456312 252.83257405 -397.36108939 196.99768791 -391.57202148 139.15014648 C-390.66181337 131.32235673 -389.0441438 123.67802947 -387.20825195 116.02172852 C-387.03986816 115.29002441 -386.87148438 114.55832031 -386.69799805 113.80444336 C-373.8709379 58.96660904 -335.60036773 11.90842407 -288.70825195 -17.91577148 C-208.74718673 -67.50156498 -105.82442339 -69.02636703 0 0 Z " fill="#004EEE" transform="translate(407.208251953125,64.978271484375)"/>
<path d="M0 0 C0.66 0.66 1.32 1.32 2 2 C1.70012049 5.79847379 0.5832325 8.2101089 -2 11 C-2.66 11 -3.32 11 -4 11 C-4.0825 11.598125 -4.165 12.19625 -4.25 12.8125 C-5.21332412 15.62219534 -6.63379711 16.27912517 -9 18 C-9.69937532 19.31647119 -10.36729133 20.65022151 -11 22 C-12.5 23.75 -12.5 23.75 -14 25 C-14.66 25 -15.32 25 -16 25 C-16.33 25.99 -16.66 26.98 -17 28 C-17.66 28 -18.32 28 -19 28 C-19.33 28.99 -19.66 29.98 -20 31 C-20.66 31 -21.32 31 -22 31 C-22.0825 31.5775 -22.165 32.155 -22.25 32.75 C-23.20710491 35.62131472 -24.8743794 36.8743794 -27 39 C-27.27585937 39.75796875 -27.55171875 40.5159375 -27.8359375 41.296875 C-29.27076284 44.62875129 -31.19918097 46.67937833 -33.6875 49.3125 C-34.60210193 50.29246557 -35.51616312 51.27293611 -36.4296875 52.25390625 C-37.27789062 53.16011719 -38.12609375 54.06632812 -39 55 C-40.11203365 56.24300651 -41.21714651 57.49226999 -42.3125 58.75 C-42.86035156 59.3790625 -43.40820312 60.008125 -43.97265625 60.65625 C-45.62876509 62.57082669 -47.28172514 64.48801823 -48.93359375 66.40625 C-54.62053734 73.00167282 -60.35225222 79.53739119 -66.2590332 85.93701172 C-70.8812196 90.94501628 -75.35152086 96.06854881 -79.77734375 101.25 C-85.11264052 107.49470297 -90.47583552 113.69810319 -95.99609375 119.78125 C-97.81311982 121.79308393 -99.59944392 123.82660434 -101.375 125.875 C-104.82783819 129.841749 -108.38877381 133.70682669 -111.95043945 137.57543945 C-115.08517052 140.98598806 -118.15726302 144.44159116 -121.19140625 147.94140625 C-124.27900965 151.4558058 -127.44872696 154.89575177 -130.6015625 158.3515625 C-132.55237143 160.50571307 -134.47393612 162.67718469 -136.375 164.875 C-138.9571315 167.85297714 -141.61627633 170.74748094 -144.3046875 173.62890625 C-148.47930768 178.10468062 -152.55229439 182.58948607 -156.375 187.375 C-161.20248657 193.39173965 -166.48270464 198.94530903 -171.76953125 204.5546875 C-174.7166166 207.68443995 -177.5747844 210.87773515 -180.3828125 214.1328125 C-185.8271662 220.41880542 -191.47457568 226.52479066 -197.125 232.625 C-200.91542257 236.71790019 -204.6554324 240.8420533 -208.30859375 245.05859375 C-212.76504628 250.17373672 -217.31783605 255.20690668 -221.94921875 260.1640625 C-222.69413574 260.96505371 -222.69413574 260.96505371 -223.45410156 261.78222656 C-224.42219035 262.82169517 -225.39403803 263.85767927 -226.37011719 264.88964844 C-228.7397975 267.43830243 -230.66077037 269.7705434 -232 273 C-230.02866879 273.21505431 -228.0573235 273.42997978 -226.0859375 273.64453125 C-223.73480683 273.91535769 -221.38623345 274.20848463 -219.0390625 274.51171875 C-188.87795557 278.38196449 -159.23120197 274.01517774 -134 256 C-129.8413206 252.70093589 -125.88162377 249.18835818 -121.94921875 245.625 C-119 243 -119 243 -117 242 C-122.49068949 255.33017393 -143.42211063 265.70404658 -156 271 C-170.09315763 276.30565934 -183.88692376 278.36599673 -198.9375 278.25 C-200.1637207 278.24613281 -201.38994141 278.24226563 -202.65332031 278.23828125 C-210.03861074 278.16755221 -217.07757358 277.72951858 -224.35546875 276.45703125 C-230.46618203 275.40097002 -234.76206918 275.36943421 -240 279 C-242.25952917 281.19464532 -242.25952917 281.19464532 -244.375 283.6875 C-245.16003906 284.58210938 -245.94507813 285.47671875 -246.75390625 286.3984375 C-247.86572266 287.68621094 -247.86572266 287.68621094 -249 289 C-250.10325081 290.2716285 -251.20734925 291.54252236 -252.3125 292.8125 C-252.86035156 293.44285156 -253.40820312 294.07320313 -253.97265625 294.72265625 C-257.19848494 298.34627499 -260.50992267 301.89127491 -263.82543945 305.43286133 C-267.05908196 308.90607182 -270.00344644 312.24375489 -272.34765625 316.375 C-274.37252134 319.59180696 -276.83346624 322.25513969 -279.4375 325 C-280.51572267 326.15225236 -281.59384478 327.30459883 -282.671875 328.45703125 C-283.22294922 329.04307129 -283.77402344 329.62911133 -284.34179688 330.23291016 C-287.47626968 333.57320965 -290.58319652 336.93913982 -293.68017578 340.31420898 C-296.0242866 342.86840888 -298.38075536 345.4045473 -300.7890625 347.8984375 C-302.03816406 349.21714844 -302.03816406 349.21714844 -303.3125 350.5625 C-304.05113281 351.32691406 -304.78976562 352.09132813 -305.55078125 352.87890625 C-307.21679912 354.86896308 -307.21679912 354.86896308 -306.9296875 357.15625 C-303.98207665 363.00193203 -292.86092719 364.87330713 -286.9765625 366.8515625 C-284 368 -284 368 -282 370 C-279.2128836 370.92615359 -276.45000625 371.77177981 -273.625 372.5625 C-272.47257812 372.89411133 -272.47257812 372.89411133 -271.296875 373.23242188 C-264.23461747 375.27629905 -264.23461747 375.27629905 -257 376.5 C-254.26357685 376.82163183 -251.65258181 377.2263303 -249 378 C-249 378.66 -249 379.32 -249 380 C-244.71 380 -240.42 380 -236 380 C-236 380.66 -236 381.32 -236 382 C-224.71154196 382.95022653 -213.44601648 383.3003899 -202.125 383.5625 C-200.35806558 383.60582153 -198.5911384 383.64943945 -196.82421875 383.69335938 C-192.54955473 383.79898089 -188.27481356 383.90062289 -184 384 C-184 383.34 -184 382.68 -184 382 C-183.33613281 382.02320313 -182.67226563 382.04640625 -181.98828125 382.0703125 C-175.27138984 382.23624305 -175.27138984 382.23624305 -169 380 C-169 380.66 -169 381.32 -169 382 C-168.01 381.34 -167.02 380.68 -166 380 C-162.9609375 379.62109375 -162.9609375 379.62109375 -159.375 379.4375 C-153.88315908 379.1184719 -148.46047714 378.6590231 -143 378 C-146.11122963 381.11122963 -149.88945125 381.21195534 -154.125 382 C-155.05570313 382.17370117 -155.98640625 382.34740234 -156.9453125 382.52636719 C-217.4422005 393.24606177 -280.72657665 381.36330936 -331.9375 347.140625 C-340.29650816 341.29784889 -348.10890411 335.1919186 -355.57421875 328.234375 C-357.5621662 326.40328653 -359.57490921 324.6821566 -361.6875 323 C-362.450625 322.34 -363.21375 321.68 -364 321 C-364 320.34 -364 319.68 -364 319 C-364.66 319 -365.32 319 -366 319 C-367.37073786 317.36395804 -368.70055256 315.69321939 -370 314 C-370.98808231 312.98822267 -371.98565504 311.98544624 -373 311 C-367.13727049 305.62053236 -361.15946016 300.44868253 -354.9765625 295.44140625 C-351.65215635 292.71469517 -348.38401965 289.92919978 -345.125 287.125 C-335.76991302 279.07857622 -326.37261443 271.09769466 -316.8046875 263.3046875 C-311.48387304 258.93243049 -306.24733664 254.45992856 -301 250 C-288.80137712 239.63188559 -288.80137712 239.63188559 -282.625 234.625 C-278.17183739 231.0027482 -273.8265049 227.27132432 -269.5 223.5 C-264.32065609 218.98527365 -259.08164603 214.56762424 -253.7421875 210.2421875 C-250.62999959 207.69746405 -247.56270126 205.10385619 -244.5 202.5 C-240.55353876 199.14547904 -236.58357765 195.82778038 -232.5625 192.5625 C-227.70235879 188.60788728 -222.94773514 184.54133047 -218.20263672 180.45043945 C-214.57370935 177.32860457 -210.90549626 174.26599697 -207.1875 171.25 C-203.88692907 168.57099645 -200.66107206 165.84216744 -197.5 163 C-193.44693577 159.35582898 -189.25177541 155.91752411 -185.01953125 152.484375 C-181.6383919 149.70248027 -178.31602648 146.85884543 -175 144 C-169.98418762 139.67815246 -164.90824304 135.44520481 -159.76953125 131.26953125 C-154.45558334 126.91494206 -149.23473234 122.44921565 -144 118 C-137.89111965 112.80780978 -131.78489359 107.61876419 -125.5625 102.5625 C-120.14286236 98.1497036 -114.84443561 93.60446806 -109.546875 89.046875 C-105.11357792 85.23375499 -100.65531444 81.45081465 -96.1796875 77.6875 C-94.00007916 75.85345572 -91.84245052 73.99692896 -89.6953125 72.125 C-88.63024351 71.20829246 -87.56514063 70.29162429 -86.5 69.375 C-85.5615625 68.55773437 -84.623125 67.74046875 -83.65625 66.8984375 C-81 65 -81 65 -78.55078125 64.546875 C-74.80212332 63.74318111 -72.47068921 61.36319492 -69.6875 58.875 C-68.82112915 58.12077759 -68.82112915 58.12077759 -67.93725586 57.35131836 C-66.28387929 55.90927738 -64.64097712 54.45611559 -63 53 C-61.68789693 51.85371216 -60.37546921 50.70779565 -59.0625 49.5625 C-58.45792969 49.03011719 -57.85335938 48.49773437 -57.23046875 47.94921875 C-54.12855412 45.23843871 -51.00230315 42.55641734 -47.875 39.875 C-47.28855713 39.37170166 -46.70211426 38.86840332 -46.09790039 38.34985352 C-43.33748615 35.9850636 -40.56816546 33.63277195 -37.7734375 31.30859375 C-35.74590056 29.62088343 -33.73884389 27.91988771 -31.75 26.1875 C-28.97487871 23.79578363 -26.12966607 21.51454753 -23.25 19.25 C-18.49942041 15.48429666 -14.05610219 11.44795236 -9.640625 7.296875 C-6.90284119 4.91548909 -4.04509859 2.96626366 -1 1 C-0.67 0.67 -0.34 0.34 0 0 Z " fill="#0048CF" transform="translate(458,83)"/>
<path d="M0 0 C-4.18464657 1.85382011 -8.3426559 3.49659491 -12.69213867 4.93774414 C-36.3018021 12.82257064 -58.80237067 25.1612731 -78 41 C-79.7288539 42.35456595 -81.45800609 43.7087513 -83.1875 45.0625 C-90.13806626 50.6546494 -96.77169111 56.61199088 -103 63 C-103.64195313 63.6084375 -104.28390625 64.216875 -104.9453125 64.84375 C-122.6111931 81.8325411 -138.58519024 105.53602964 -146 129 C-146.66 129 -147.32 129 -148 129 C-148.10699219 129.66257813 -148.21398437 130.32515625 -148.32421875 131.0078125 C-149.17020809 134.75363813 -150.48800143 138.27946699 -151.8125 141.875 C-156.31044551 154.48328664 -159.35838329 166.31795503 -160.31738281 179.68066406 C-160.69151066 184.72851204 -161.41718034 189.18613524 -163 194 C-162.34 194.33 -161.68 194.66 -161 195 C-160.8046875 201.0546875 -160.8046875 201.0546875 -161 203 C-161.99 203.99 -161.99 203.99 -163 205 C-163.28255875 207.95762247 -163.28255875 207.95762247 -163.1875 211.3125 C-163.17783203 213.00826172 -163.17783203 213.00826172 -163.16796875 214.73828125 C-162.9778627 218.4298755 -162.33614499 221.75626356 -161.375 225.3125 C-161.01615906 227.88419342 -161.17306656 229.64931029 -161.5625 232.1875 C-161.706875 233.445625 -161.85125 234.70375 -162 236 C-161.34 236.66 -160.68 237.32 -160 238 C-160.26902891 240.11860265 -160.54213438 242.23679942 -160.83984375 244.3515625 C-161.07407872 248.225009 -160.29459796 251.74730871 -159.47265625 255.51953125 C-159 258 -159 258 -159 262 C-158.34 262 -157.68 262 -157 262 C-156.4254048 265.73486879 -156 269.21293268 -156 273 C-154.68 273.33 -153.36 273.66 -152 274 C-151.95101562 274.78246094 -151.90203125 275.56492187 -151.8515625 276.37109375 C-151.77679688 277.38300781 -151.70203125 278.39492188 -151.625 279.4375 C-151.55539063 280.44683594 -151.48578125 281.45617187 -151.4140625 282.49609375 C-151.27742188 283.32238281 -151.14078125 284.14867187 -151 285 C-150.34 285.33 -149.68 285.66 -149 286 C-149 287.32 -149 288.64 -149 290 C-148.34 290 -147.68 290 -147 290 C-146.89042969 290.65226562 -146.78085938 291.30453125 -146.66796875 291.9765625 C-145.72955394 297.14928804 -144.5575746 301.34986436 -142 306 C-142 306.66 -142 307.32 -142 308 C-141.01 308.33 -140.02 308.66 -139 309 C-137.90234375 310.92578125 -137.90234375 310.92578125 -136.9375 313.3125 C-135.71993785 316.27083374 -134.46497871 319.15468579 -133 322 C-132.34 322 -131.68 322 -131 322 C-130 325 -129 328 -128 331 C-127.01 331.33 -126.02 331.66 -125 332 C-124.28414785 333.30758477 -123.62559654 334.6469105 -123 336 C-121.86835094 337.58804526 -120.69947274 339.15004024 -119.5 340.6875 C-118.8915625 341.47511719 -118.283125 342.26273437 -117.65625 343.07421875 C-116.13563936 345.09322995 -116.13563936 345.09322995 -114 346 C-112.51685009 348.2572026 -111.29481183 350.6261783 -110 353 C-105.90178366 352.49300416 -104.12359628 351.55130512 -101.375 348.5 C-98.21174468 345.15067084 -94.9210639 342.24048143 -91.3125 339.375 C-88.2865357 336.95422856 -85.51972331 334.67695021 -83.125 331.625 C-81 329 -81 329 -78.7578125 327.68359375 C-75.37143308 325.61627147 -72.64229167 323.13484554 -69.75 320.4375 C-69.20859375 319.94314453 -68.6671875 319.44878906 -68.109375 318.93945312 C-65.16286199 316.28066342 -65.16286199 316.28066342 -63 313 C-62.319375 312.608125 -61.63875 312.21625 -60.9375 311.8125 C-57.50371235 309.69377996 -54.72655666 307.15664793 -51.76953125 304.42578125 C-50 303 -50 303 -48 303 C-48 302.34 -48 301.68 -48 301 C-46.44759659 299.60674046 -44.82970015 298.28619872 -43.1875 297 C-36.91114839 291.94437393 -36.91114839 291.94437393 -30.75 286.75 C-29.81671875 285.96109375 -28.8834375 285.1721875 -27.921875 284.359375 C-25.75206564 282.19670474 -25.75206564 282.19670474 -25.9765625 279.59765625 C-27.23570354 276.40174483 -28.83809014 273.62313762 -30.625 270.6875 C-46.12308755 244.40386555 -53.16363199 212.8007204 -46.25634766 182.62158203 C-37.39430557 148.97557202 -15.8124953 122.67772469 13.6875 104.8125 C27.83368527 96.96938493 44.68356246 90.65153337 61 91 C57.27109844 93.48593438 53.63387619 93.95239062 49.3125 94.75 C18.89824346 100.81436942 -7.88813969 118.06471326 -25.76171875 143.5078125 C-43.18266517 169.73710261 -49.85105022 199.90132676 -43.80053711 230.99267578 C-40.1916466 247.68492272 -33.64090565 263.35723997 -23.6640625 277.2734375 C-23.11492187 278.17320312 -22.56578125 279.07296875 -22 280 C-23.23425523 283.70276569 -24.62245549 284.5035057 -27.6875 286.875 C-32.32399865 290.56736079 -36.69170634 294.43108882 -41 298.5 C-45.93438162 303.14742897 -50.99483521 307.51932555 -56.2890625 311.7578125 C-59.81882015 314.67723742 -63.15906845 317.78505358 -66.5090332 320.90576172 C-69.84178875 323.9910649 -73.27161944 326.90179512 -76.8125 329.75 C-80.55547573 332.76368533 -83.99678422 335.87819412 -87.3359375 339.328125 C-89.71412203 341.71747472 -92.25431083 343.8963964 -94.8125 346.08984375 C-96.4415541 347.51235706 -98.04134784 348.96851548 -99.625 350.44140625 C-100.511875 351.26511719 -101.39875 352.08882813 -102.3125 352.9375 C-103.54419922 354.09572266 -103.54419922 354.09572266 -104.80078125 355.27734375 C-107 357 -107 357 -110 357 C-111.91015625 355.05078125 -111.91015625 355.05078125 -114.0625 352.3125 C-115.25746094 350.7965625 -115.25746094 350.7965625 -116.4765625 349.25 C-116.89196289 348.71375 -117.30736328 348.1775 -117.73535156 347.625 C-118.96117594 346.04988667 -120.21072182 344.49332396 -121.4609375 342.9375 C-158.01631117 296.81084553 -170.15283744 240.97595939 -164.36376953 183.12841797 C-163.45356142 175.30062821 -161.83589185 167.65630096 -160 160 C-159.83161621 159.2682959 -159.66323242 158.5365918 -159.48974609 157.78271484 C-146.66268595 102.94488052 -108.39211577 55.88669555 -61.5 26.0625 C-12.01817829 -4.62237627 -12.01817829 -4.62237627 0 0 Z " fill="#0624A9" transform="translate(180,21)"/>
<path d="M0 0 C0.99 0.495 0.99 0.495 2 1 C-4.20566374 6.74954145 -10.49101747 12.28862585 -17.07421875 17.60546875 C-20.30378799 20.24862755 -23.46681552 22.95993656 -26.625 25.6875 C-32.58978015 30.83175029 -38.64827719 35.85332899 -44.73925781 40.84716797 C-49.6867536 44.90708437 -54.58909696 49.01528787 -59.46240234 53.16381836 C-62.83503009 56.02996734 -66.24793914 58.83967729 -69.6875 61.625 C-74.07439199 65.19292084 -78.27262969 68.9241534 -82.44921875 72.734375 C-86.01717628 75.90346438 -89.72691721 78.8840994 -93.45703125 81.859375 C-96.10579856 84.01831739 -96.10579856 84.01831739 -98.69921875 86.765625 C-101 89 -101 89 -103 89 C-103.495 90.485 -103.495 90.485 -104 92 C-105.64821244 93.03013277 -107.32111559 94.02065076 -109 95 C-110.55805882 96.12344241 -112.09852176 97.27150929 -113.625 98.4375 C-114.38039062 99.01371094 -115.13578125 99.58992188 -115.9140625 100.18359375 C-118.07320454 101.93260301 -118.07320454 101.93260301 -119.6484375 104.22265625 C-120.09445313 104.80917969 -120.54046875 105.39570313 -121 106 C-121.66 106 -122.32 106 -123 106 C-123 106.66 -123 107.32 -123 108 C-123.763125 108.45375 -124.52625 108.9075 -125.3125 109.375 C-128.04325566 111.02615458 -129.1495931 112.47671786 -131 115 C-132.485 115.495 -132.485 115.495 -134 116 C-134.7425 116.7425 -135.485 117.485 -136.25 118.25 C-138.84687023 120.84687023 -141.40529081 122.7777753 -144.44921875 124.7890625 C-146.29173316 126.09698879 -146.29173316 126.09698879 -148 129 C-148.99 129 -149.98 129 -151 129 C-151.226875 129.763125 -151.45375 130.52625 -151.6875 131.3125 C-153.27620816 134.5655691 -154.93531644 135.22570952 -158 137 C-158.15811388 140.05270463 -158.15811388 140.05270463 -157 143 C-156.34 143 -155.68 143 -155 143 C-153.77132039 144.4611325 -152.54677896 145.92621081 -151.35546875 147.41796875 C-149.48108171 149.60565392 -147.27246771 151.23883753 -145 153 C-144.154375 153.886875 -143.30875 154.77375 -142.4375 155.6875 C-140.29400325 158.10066415 -140.29400325 158.10066415 -138 158.5 C-134.76192441 159.3095189 -133.14547742 161.5565396 -131 164 C-131 164.66 -131 165.32 -131 166 C-128.83572512 167.12221661 -126.73059447 168.098563 -124.4375 168.9375 C-121.95200292 170.02092181 -120.844031 171.07579374 -119 173 C-116.17258305 174.63001196 -116.17258305 174.63001196 -113 175 C-111.375 176.375 -111.375 176.375 -110 178 C-110 178.66 -110 179.32 -110 180 C-106.7 180.33 -103.4 180.66 -100 181 C-100.33 182.32 -100.66 183.64 -101 185 C-107.0795551 184.60903183 -111.16891665 181.74119953 -116.125 178.5 C-116.96740234 177.95682129 -117.80980469 177.41364258 -118.67773438 176.85400391 C-128.65708628 170.35977816 -137.85009277 163.36510891 -146.57421875 155.234375 C-148.5621662 153.40328653 -150.57490921 151.6821566 -152.6875 150 C-153.450625 149.34 -154.21375 148.68 -155 148 C-155 147.34 -155 146.68 -155 146 C-155.66 146 -156.32 146 -157 146 C-158.37073786 144.36395804 -159.70055256 142.69321939 -161 141 C-161.98808231 139.98822267 -162.98565504 138.98544624 -164 138 C-158.13727049 132.62053236 -152.15946016 127.44868253 -145.9765625 122.44140625 C-142.65215635 119.71469517 -139.38401965 116.92919978 -136.125 114.125 C-126.76991302 106.07857622 -117.37261443 98.09769466 -107.8046875 90.3046875 C-102.48387304 85.93243049 -97.24733664 81.45992856 -92 77 C-79.80137712 66.63188559 -79.80137712 66.63188559 -73.625 61.625 C-69.17183739 58.0027482 -64.8265049 54.27132432 -60.5 50.5 C-55.32065609 45.98527365 -50.08164603 41.56762424 -44.7421875 37.2421875 C-41.62999959 34.69746405 -38.56270126 32.10385619 -35.5 29.5 C-31.55353876 26.14547904 -27.58357765 22.82778038 -23.5625 19.5625 C-18.55305909 15.48864585 -13.65036955 11.29907905 -8.76977539 7.07250977 C-5.91557791 4.60776277 -3.05999639 2.21041509 0 0 Z " fill="#052890" transform="translate(249,256)"/>
<path d="M0 0 C0.99 0 1.98 0 3 0 C-1.40742604 9.87546262 -10.16067112 18.4610514 -17.23583984 26.53442383 C-21.28541918 31.15608278 -25.20176821 35.86127381 -29.07421875 40.6328125 C-33.17732178 45.67638336 -37.40161192 50.40161192 -42 55 C-44.03424429 57.3048326 -46.02468796 59.64455918 -48 62 C-48.33 61.01 -48.66 60.02 -49 59 C-48.195625 58.236875 -47.39125 57.47375 -46.5625 56.6875 C-43.83200976 54.20569102 -43.83200976 54.20569102 -43 51 C-41.35360035 49.64172029 -39.68704193 48.30745749 -38 47 C-37.505 46.01 -37.505 46.01 -37 45 C-36.34 45 -35.68 45 -35 45 C-34.67 44.01 -34.34 43.02 -34 42 C-33.34 41.67 -32.68 41.34 -32 41 C-31.525625 40.195625 -31.05125 39.39125 -30.5625 38.5625 C-29 36 -29 36 -26 34 C-25.67 33.01 -25.34 32.02 -25 31 C-24.13375 30.21625 -23.2675 29.4325 -22.375 28.625 C-21.59125 27.75875 -20.8075 26.8925 -20 26 C-20.04979584 23.239835 -20.04979584 23.239835 -21 21 C-30.28192254 28.41218275 -39.3415982 35.99178571 -48.16015625 43.94921875 C-53.49070456 48.70187584 -53.49070456 48.70187584 -56.5625 50.5 C-58.84376933 51.90385805 -60.28029224 53.21487707 -62.125 55.125 C-67.08359408 60.23616621 -72.78936276 66.00701335 -79.26953125 69.07421875 C-81.36128568 69.93831448 -81.36128568 69.93831448 -82 73 C-83.35107422 74.31860352 -83.35107422 74.31860352 -85.0546875 75.62890625 C-85.97701172 76.34530273 -85.97701172 76.34530273 -86.91796875 77.07617188 C-87.56378906 77.56666016 -88.20960938 78.05714844 -88.875 78.5625 C-89.51308594 79.05685547 -90.15117187 79.55121094 -90.80859375 80.06054688 C-93.49505481 82.13287957 -96.17477985 84.1165199 -99 86 C-99.66 85.34 -100.32 84.68 -101 84 C-100.21238281 83.33355469 -99.42476563 82.66710937 -98.61328125 81.98046875 C-98.09362793 81.5407373 -97.57397461 81.10100586 -97.03857422 80.64794922 C-95.87233151 79.66117922 -94.70598777 78.67452862 -93.53955078 77.68798828 C-90.56701332 75.1736209 -87.59584138 72.65769546 -84.62890625 70.13671875 C-79.66307918 65.92047849 -74.68574307 61.72749586 -69.625 57.625 C-65.29799989 54.10462274 -61.07616234 50.48065866 -56.875 46.8125 C-49.95207795 40.77051418 -42.88831885 34.91251932 -35.77734375 29.09375 C-35.13780762 28.56910156 -34.49827148 28.04445313 -33.83935547 27.50390625 C-32.64480822 26.52721246 -31.44612591 25.55554644 -30.24267578 24.58984375 C-27.67469993 22.50749116 -25.85223932 20.77835898 -24 18 C-23.34 18 -22.68 18 -22 18 C-20.27226707 16.69755517 -18.59220579 15.3315489 -16.9375 13.9375 C-13.29356697 10.907282 -9.65246452 7.88052384 -5.9375 4.9375 C-5.22464844 4.36902344 -4.51179688 3.80054687 -3.77734375 3.21484375 C-2 2 -2 2 0 2 C0 1.34 0 0.68 0 0 Z " fill="#0461EF" transform="translate(479,63)"/>
<path d="M0 0 C3.76102914 -0.22813868 5.78089668 0.15602261 8.9375 2.1875 C14.05133559 5.228159 19.44212396 7.02667967 25.05859375 8.88671875 C28 10 28 10 30 12 C32.7871164 12.92615359 35.54999375 13.77177981 38.375 14.5625 C39.14328125 14.78357422 39.9115625 15.00464844 40.703125 15.23242188 C47.76538253 17.27629905 47.76538253 17.27629905 55 18.5 C57.73642315 18.82163183 60.34741819 19.2263303 63 20 C63 20.66 63 21.32 63 22 C67.29 22 71.58 22 76 22 C76 22.66 76 23.32 76 24 C87.28845804 24.95022653 98.55398352 25.3003899 109.875 25.5625 C111.64193442 25.60582153 113.4088616 25.64943945 115.17578125 25.69335938 C119.45044527 25.79898089 123.72518644 25.90062289 128 26 C128 25.34 128 24.68 128 24 C128.99580078 24.03480469 128.99580078 24.03480469 130.01171875 24.0703125 C136.72861016 24.23624305 136.72861016 24.23624305 143 22 C143 22.66 143 23.32 143 24 C143.99 23.34 144.98 22.68 146 22 C149.0390625 21.62109375 149.0390625 21.62109375 152.625 21.4375 C158.11684092 21.1184719 163.53952286 20.6590231 169 20 C165.88877037 23.11122963 162.11054875 23.21195534 157.875 24 C156.94429687 24.17370117 156.01359375 24.34740234 155.0546875 24.52636719 C102.0846325 33.912351 47.62484608 25.83133813 0 1 C0 0.67 0 0.34 0 0 Z " fill="#0642BD" transform="translate(146,441)"/>
<path d="M0 0 C-3.72890156 2.48593438 -7.36612381 2.95239062 -11.6875 3.75 C-42.10175654 9.81436942 -68.88813969 27.06471326 -86.76171875 52.5078125 C-99.30931366 71.39969698 -105.21779854 90.49638154 -107 113 C-107.33 113 -107.66 113 -108 113 C-112.36650982 94.54157214 -102.27741176 73.26351962 -93.02734375 57.67578125 C-74.39137434 28.74001165 -46.88649579 8.72017032 -13.25 1.0625 C-8.76208561 0.13949298 -4.58103747 -0.09783623 0 0 Z " fill="#0530B9" transform="translate(241,112)"/>
<path d="M0 0 C0.99 0 1.98 0 3 0 C-1.40742604 9.87546262 -10.16067112 18.4610514 -17.23583984 26.53442383 C-21.28541918 31.15608278 -25.20176821 35.86127381 -29.07421875 40.6328125 C-33.17732178 45.67638336 -37.40161192 50.40161192 -42 55 C-44.03424429 57.3048326 -46.02468796 59.64455918 -48 62 C-48.495 60.515 -48.495 60.515 -49 59 C-48.195625 58.236875 -47.39125 57.47375 -46.5625 56.6875 C-43.83200976 54.20569102 -43.83200976 54.20569102 -43 51 C-41.35360035 49.64172029 -39.68704193 48.30745749 -38 47 C-37.67 46.34 -37.34 45.68 -37 45 C-36.34 45 -35.68 45 -35 45 C-34.67 44.01 -34.34 43.02 -34 42 C-33.01 41.505 -33.01 41.505 -32 41 C-31.525625 40.195625 -31.05125 39.39125 -30.5625 38.5625 C-29 36 -29 36 -26 34 C-25.67 33.01 -25.34 32.02 -25 31 C-24.154375 30.278125 -23.30875 29.55625 -22.4375 28.8125 C-19.55294561 25.48416801 -19.94293879 24.25318959 -20.1796875 20.0390625 C-19.81821925 15.93718368 -16.96299353 13.60247721 -14 11 C-4.61111111 3.53703704 -4.61111111 3.53703704 0 2 C0 1.34 0 0.68 0 0 Z " fill="#066CEE" transform="translate(479,63)"/>
<path d="M0 0 C1.32 0.66 2.64 1.32 4 2 C2.68 2.99 1.36 3.98 0 5 C-0.66 4.34 -1.32 3.68 -2 3 C-1.34 2.01 -0.68 1.02 0 0 Z M-3 4 C-3 8.36040623 -5.6731988 10.45711636 -8.4375 13.5625 C-8.98519043 14.18874268 -9.53288086 14.81498535 -10.09716797 15.46020508 C-11.72316918 17.31432121 -13.35948628 19.15872232 -15 21 C-15.80824219 21.91007812 -16.61648438 22.82015625 -17.44921875 23.7578125 C-20.49534892 27.15941567 -23.56794215 30.53383232 -26.671875 33.8828125 C-27.56390625 34.84960938 -28.4559375 35.81640625 -29.375 36.8125 C-30.18710937 37.68519531 -30.99921875 38.55789062 -31.8359375 39.45703125 C-33.88867878 41.86918752 -35.37845337 44.29157888 -37 47 C-38.20558688 48.31304137 -39.45764558 49.5847633 -40.75 50.8125 C-43.9938672 53.9740952 -47.00133971 57.23550282 -49.953125 60.66796875 C-52.58170822 63.66274772 -55.29048909 66.57856737 -58 69.5 C-59.03527414 70.62489152 -60.07043273 71.74988938 -61.10546875 72.875 C-62.83659763 74.75383226 -64.5844444 76.60279885 -66.36328125 78.4375 C-67.00652344 79.118125 -67.64976562 79.79875 -68.3125 80.5 C-68.86550781 81.0671875 -69.41851562 81.634375 -69.98828125 82.21875 C-71.23236854 84.01111517 -71.23236854 84.01111517 -70.765625 86.41015625 C-70.02036955 88.93109689 -69.25458246 91.43888552 -68.4375 93.9375 C-67.2638239 97.74909859 -66.68247389 100.9780026 -67 105 C-68.9312307 101.49582123 -70.05522696 97.8926077 -71.1875 94.0625 C-71.55230469 92.85722656 -71.91710937 91.65195313 -72.29296875 90.41015625 C-73.01347854 86.93499023 -73.26490762 85.2813503 -72 82 C-70.34346878 79.92217105 -68.72311401 78.07458577 -66.875 76.1875 C-65.86390662 75.12173534 -64.85348915 74.05532904 -63.84375 72.98828125 C-63.35261719 72.47475098 -62.86148437 71.9612207 -62.35546875 71.43212891 C-60.64344294 69.62327743 -59.00267234 67.75987528 -57.375 65.875 C-54.88977333 63.00788271 -52.36233857 60.18484 -49.8125 57.375 C-46.17716172 53.35082248 -42.63848304 49.25503175 -39.125 45.125 C-35.27572386 40.60050891 -31.35625216 36.16396767 -27.3125 31.8125 C-23.10183474 27.27914405 -19.15960001 22.57764603 -15.28125 17.7578125 C-11.35926166 13.01650467 -7.18127719 8.51298603 -3 4 Z " fill="#00E4FE" transform="translate(439,114)"/>
<path d="M0 0 C4.42871657 2.21435828 6.54300595 4.72301036 9 9 C9 9.66 9 10.32 9 11 C9.66 11.33 10.32 11.66 11 12 C12.36050915 14.33524622 13.6363347 16.66385569 14.875 19.0625 C15.23215088 19.74626709 15.58930176 20.43003418 15.95727539 21.13452148 C16.66143015 22.48547685 17.36307995 23.83774133 18.06201172 25.19140625 C18.82122723 26.65529707 19.59748531 28.11034097 20.37890625 29.5625 C22.42893599 33.43561892 23.28945913 36.71617866 24 41 C24.59955271 42.96654626 25.24389799 44.91983824 25.92578125 46.859375 C26.30855225 47.96659912 26.69132324 49.07382324 27.08569336 50.21459961 C27.49053955 51.38128174 27.89538574 52.54796387 28.3125 53.75 C31.9420059 64.41993301 34.94008714 74.92654578 37 86 C37.22300781 87.07894531 37.44601562 88.15789062 37.67578125 89.26953125 C39.13896149 96.86413343 39.20549082 104.28267798 39 112 C38.67 112 38.34 112 38 112 C37.91435791 111.31373535 37.82871582 110.6274707 37.74047852 109.92041016 C37.35159892 106.82145205 36.95712079 103.72323203 36.5625 100.625 C36.42779297 99.54476562 36.29308594 98.46453125 36.15429688 97.3515625 C36.02216797 96.3203125 35.89003906 95.2890625 35.75390625 94.2265625 C35.57323608 92.79691162 35.57323608 92.79691162 35.38891602 91.33837891 C35.11554326 88.98574528 35.11554326 88.98574528 34 87 C33.87882812 85.71996094 33.75765625 84.43992187 33.6328125 83.12109375 C33.025919 77.25250386 31.48901916 71.72443211 29.875 66.0625 C29.5658667 64.96945557 29.2567334 63.87641113 28.93823242 62.75024414 C25.53067785 50.97673385 21.4804978 39.5227099 15.75854492 28.66625977 C15 27 15 27 15 25 C14.34 25 13.68 25 13 25 C10 18.5 10 18.5 10 14 C9.34 14 8.68 14 8 14 C7.731875 13.236875 7.46375 12.47375 7.1875 11.6875 C6.02021744 9.04575527 5.07942969 7.91307531 3 6 C0 2.33333333 0 2.33333333 0 0 Z " fill="#01E1FE" transform="translate(444,119)"/>
<path d="M0 0 C0 3 0 3 -2.1328125 5.3828125 C-3.11903461 6.30891976 -4.11739831 7.22220017 -5.125 8.125 C-5.66125 8.60928467 -6.1975 9.09356934 -6.75 9.5925293 C-27.6968179 27.99640833 -53.30051315 36.46297251 -80.9375 36.25 C-82.1651709 36.24613281 -83.3928418 36.24226563 -84.65771484 36.23828125 C-91.99495964 36.16807771 -98.97843929 35.74722287 -106.203125 34.4453125 C-110.47249368 33.76555268 -114.69057373 33.82126803 -119 34 C-117.35 32.35 -115.7 30.7 -114 29 C-114 29.66 -114 30.32 -114 31 C-112.02866879 31.21505431 -110.0573235 31.42997978 -108.0859375 31.64453125 C-105.73480683 31.91535769 -103.38623345 32.20848463 -101.0390625 32.51171875 C-70.85589836 36.38479486 -41.2599276 31.99575654 -16 14 C-10.45496699 9.63467949 -4.99265002 4.99265002 0 0 Z " fill="#056AE3" transform="translate(340,325)"/>
<path d="M0 0 C-4.18464657 1.85382011 -8.3426559 3.49659491 -12.69213867 4.93774414 C-36.3018021 12.82257064 -58.80237067 25.1612731 -78 41 C-79.7288539 42.35456595 -81.45800609 43.7087513 -83.1875 45.0625 C-89.39037827 50.05308936 -95.46942169 55.26699185 -100.9375 61.0625 C-103 63 -103 63 -106 63 C-82.91644092 34.44928219 -45.20877933 13.45623569 -11.1875 1.1875 C-10.506875 0.9390332 -9.82625 0.69056641 -9.125 0.43457031 C-5.76471193 -0.70342415 -3.36107012 -1.37998597 0 0 Z " fill="#0530C1" transform="translate(180,21)"/>
<path d="M0 0 C0.99 0.495 0.99 0.495 2 1 C-3.19226102 5.73330067 -8.5059978 9.95267625 -14.375 13.8125 C-15.15029053 14.32458008 -15.92558105 14.83666016 -16.72436523 15.36425781 C-24.90728266 20.69681572 -33.33731228 25.49470268 -42 30 C-42.67820801 30.35545898 -43.35641602 30.71091797 -44.05517578 31.07714844 C-52.98998475 35.69747937 -62.16314138 39.27259567 -71.6875 42.5 C-73.22978271 43.0261792 -73.22978271 43.0261792 -74.80322266 43.56298828 C-79.64227855 45.14672286 -83.83734794 46.49251877 -89 46 C-85.4967605 43.664507 -82.00643928 42.77917638 -78 41.6875 C-71.09238763 39.73205782 -64.2388707 37.64360276 -58 34 C-57.67 33.34 -57.34 32.68 -57 32 C-55.0378418 31.52539062 -55.0378418 31.52539062 -52.51171875 31.15625 C-47.02320526 30.15000628 -42.67153982 28.18113228 -37.8125 25.5 C-36.99442871 25.05785156 -36.17635742 24.61570312 -35.33349609 24.16015625 C-22.72926715 17.23383935 -11.25327498 8.91912183 0 0 Z " fill="#0655D4" transform="translate(405,415)"/>
<path d="M0 0 C0.99 0.495 0.99 0.495 2 1 C-4.20566374 6.74954145 -10.49101747 12.28862585 -17.07421875 17.60546875 C-20.30378799 20.24862755 -23.46681552 22.95993656 -26.625 25.6875 C-32.58189461 30.8249495 -38.63221584 35.840086 -44.71508789 40.82739258 C-51.2015796 46.15034798 -57.61356167 51.55764386 -64 57 C-64.66 56.34 -65.32 55.68 -66 55 C-65.36835938 54.48953125 -64.73671875 53.9790625 -64.0859375 53.453125 C-58.65754911 49.0415817 -53.2983021 44.5663477 -48 40 C-43.00428947 35.69479747 -37.94495631 31.48451929 -32.82421875 27.328125 C-29.61295734 24.68094409 -26.4616661 21.97041466 -23.3125 19.25 C-15.68056037 12.66179938 -7.85230627 6.32263621 0 0 Z " fill="#052DA3" transform="translate(249,256)"/>
<path d="M0 0 C3.76102914 -0.22813868 5.78089668 0.15602261 8.9375 2.1875 C14.05133559 5.228159 19.44212396 7.02667967 25.05859375 8.88671875 C28 10 28 10 30 12 C32.7871164 12.92615359 35.54999375 13.77177981 38.375 14.5625 C39.14328125 14.78357422 39.9115625 15.00464844 40.703125 15.23242188 C43.48715499 16.02957925 46.26568401 16.82223728 49.08056641 17.50366211 C51.4825922 18.12479139 53.71232512 19.04680213 56 20 C56 20.33 56 20.66 56 21 C48.88532385 20.45945992 42.62542526 18.90182328 35.875 16.625 C34.84761719 16.28210938 33.82023437 15.93921875 32.76171875 15.5859375 C21.40622731 11.65785033 10.68964853 6.45340986 0 1 C0 0.67 0 0.34 0 0 Z " fill="#063DBA" transform="translate(146,441)"/>
<path d="M0 0 C0 4.2867412 -2.55037388 6.07676596 -5.375 9 C-6.4783413 10.16621583 -7.58119799 11.33289033 -8.68359375 12.5 C-9.24030762 13.08523438 -9.79702148 13.67046875 -10.37060547 14.2734375 C-12.76718242 16.81293289 -15.10043416 19.40561017 -17.4375 22 C-19.67802525 24.48694512 -21.92778626 26.92790908 -24.296875 29.29296875 C-27.88675951 32.88804095 -31.34516628 36.5996326 -34.8125 40.3125 C-35.50537109 41.05306641 -36.19824219 41.79363281 -36.91210938 42.55664062 C-38.60883597 44.37038284 -40.30477751 46.18485208 -42 48 C-42 44.34637033 -41.34910329 43.9451139 -38.89453125 41.3828125 C-38.24033203 40.69316406 -37.58613281 40.00351562 -36.91210938 39.29296875 C-35.87280273 38.21982422 -35.87280273 38.21982422 -34.8125 37.125 C-33.80219727 36.06345703 -33.80219727 36.06345703 -32.77148438 34.98046875 C-29.2301444 31.26983545 -25.63331665 27.62067903 -22 24 C-15.9575465 18.03749214 -15.9575465 18.03749214 -14 10 C-12.02 10 -10.04 10 -8 10 C-7.79375 9.46375 -7.5875 8.9275 -7.375 8.375 C-5.42003056 4.9982346 -2.81776305 2.69525161 0 0 Z " fill="#0335A8" transform="translate(250,325)"/>
<path d="M0 0 C0.33 0 0.66 0 1 0 C1.67355104 26.85568881 0.03813101 54.75876941 -10 80 C-11.08214191 76.75357426 -10.96091665 76.10143587 -10.00390625 72.98046875 C-9.77509766 72.20509766 -9.54628906 71.42972656 -9.31054688 70.63085938 C-9.06369141 69.82455078 -8.81683594 69.01824219 -8.5625 68.1875 C-6.97763808 63.00411872 -5.637329 58.49313874 -6 53 C-5.34 53 -4.68 53 -4 53 C-3.96241577 52.14450562 -3.96241577 52.14450562 -3.92407227 51.27172852 C-3.80843451 48.70173843 -3.68556376 46.13214473 -3.5625 43.5625 C-3.50352539 42.21575195 -3.50352539 42.21575195 -3.44335938 40.84179688 C-3.40146484 39.98779297 -3.35957031 39.13378906 -3.31640625 38.25390625 C-3.26141968 37.06776733 -3.26141968 37.06776733 -3.20532227 35.85766602 C-3 34 -3 34 -2 33 C-0.83693879 25.71148305 -0.72319959 18.23761896 -0.4375 10.875 C-0.39431641 9.823125 -0.35113281 8.77125 -0.30664062 7.6875 C-0.20181491 5.12509373 -0.09964645 2.56261201 0 0 Z " fill="#00C9FE" transform="translate(483,237)"/>
<path d="M0 0 C4.42871657 2.21435828 6.54300595 4.72301036 9 9 C9 9.66 9 10.32 9 11 C9.66 11.33 10.32 11.66 11 12 C12.3604935 14.33521936 13.63610809 16.66400755 14.875 19.0625 C15.40963867 20.08380005 15.40963867 20.08380005 15.95507812 21.12573242 C16.97590853 23.0808466 17.9885636 25.04001444 19 27 C19.46664063 27.89203125 19.93328125 28.7840625 20.4140625 29.703125 C23 34.72616906 23 34.72616906 23 37 C22.34 37 21.68 37 21 37 C21 36.34 21 35.68 21 35 C19.515 34.505 19.515 34.505 18 34 C17.05078125 31.93359375 17.05078125 31.93359375 16.3125 29.4375 C16.06113281 28.61121094 15.80976563 27.78492188 15.55078125 26.93359375 C15.36902344 26.29550781 15.18726563 25.65742188 15 25 C14.34 25 13.68 25 13 25 C10 18.5 10 18.5 10 14 C9.34 14 8.68 14 8 14 C7.731875 13.236875 7.46375 12.47375 7.1875 11.6875 C6.02021744 9.04575527 5.07942969 7.91307531 3 6 C0 2.33333333 0 2.33333333 0 0 Z " fill="#05C4F7" transform="translate(444,119)"/>
<path d="M0 0 C0 3 0 3 -1.34179688 4.60644531 C-1.96119141 5.17459961 -2.58058594 5.74275391 -3.21875 6.328125 C-3.90453125 6.96363281 -4.5903125 7.59914063 -5.296875 8.25390625 C-6.02390625 8.91261719 -6.7509375 9.57132812 -7.5 10.25 C-8.19609375 10.89324219 -8.8921875 11.53648437 -9.609375 12.19921875 C-13.74155132 16.0023514 -17.94651748 19.7158258 -22.18310547 23.40185547 C-25.45907403 26.28340481 -28.62262061 29.28877511 -31.80078125 32.27734375 C-34 34 -34 34 -37 34 C-42 28.65116279 -42 28.65116279 -42 26 C-39 27 -39 27 -37 30 C-32.90178366 29.49300416 -31.12359628 28.55130512 -28.375 25.5 C-25.21174468 22.15067084 -21.9210639 19.24048143 -18.3125 16.375 C-15.2865357 13.95422856 -12.51972331 11.67695021 -10.125 8.625 C-7.93105968 5.91483843 -6.01892907 4.66835554 -3 3 C-1.24850835 1.41754725 -1.24850835 1.41754725 0 0 Z " fill="#06229C" transform="translate(107,344)"/>
<path d="M0 0 C0 3.68452929 -0.68963731 4.08556986 -3.18359375 6.66015625 C-3.85962646 7.36648193 -4.53565918 8.07280762 -5.23217773 8.80053711 C-5.95993408 9.54698486 -6.68769043 10.29343262 -7.4375 11.0625 C-8.91743263 12.6060368 -10.39660445 14.15030343 -11.875 15.6953125 C-12.59042969 16.43942383 -13.30585938 17.18353516 -14.04296875 17.95019531 C-18.6275718 22.75213233 -23.00688454 27.740703 -27.3984375 32.71875 C-28.19507813 33.6159375 -28.99171875 34.513125 -29.8125 35.4375 C-30.52019531 36.24058594 -31.22789062 37.04367187 -31.95703125 37.87109375 C-33.85365759 39.84750169 -35.75941937 41.43411106 -38 43 C-36.43586569 39.16076124 -33.90063768 36.90063768 -31 34 C-30.443125 33.071875 -29.88625 32.14375 -29.3125 31.1875 C-28.879375 30.465625 -28.44625 29.74375 -28 29 C-27.34 29 -26.68 29 -26 29 C-26 28.34 -26 27.68 -26 27 C-24.50995841 25.77485469 -23.01756094 24.55233917 -21.5078125 23.3515625 C-19.82024054 21.97589406 -19.82024054 21.97589406 -18.5625 19.5625 C-16.73171793 16.5600174 -14.60406856 14.88595437 -11.90625 12.6796875 C-9.19213891 10.28815519 -6.90808058 7.59204873 -4.578125 4.83203125 C-3.11895215 3.13809049 -1.60177682 1.55835516 0 0 Z " fill="#0034A7" transform="translate(205,374)"/>
<path d="M0 0 C0.99 0 1.98 0 3 0 C1.32076975 3.80133442 -1.11462834 6.97082702 -3.625 10.25 C-4.04523438 10.80429688 -4.46546875 11.35859375 -4.8984375 11.9296875 C-5.92938719 13.28866663 -6.96429911 14.64463835 -8 16 C-8.33 15.34 -8.66 14.68 -9 14 C-12.62326739 12.7922442 -13.64146369 13.45688872 -17 15 C-12.46217403 10.1596523 -7.40199452 5.85310406 -2 2 C-1.34 2 -0.68 2 0 2 C0 1.34 0 0.68 0 0 Z " fill="#1276EA" transform="translate(479,63)"/>
<path d="M0 0 C0 3.48847706 -0.36532706 3.75323385 -2.67578125 6.15234375 C-3.25110596 6.75796143 -3.82643066 7.3635791 -4.41918945 7.98754883 C-5.04398193 8.63103271 -5.66877441 9.2745166 -6.3125 9.9375 C-7.60463531 11.29382452 -8.89629651 12.65060086 -10.1875 14.0078125 C-10.83332031 14.68231445 -11.47914063 15.35681641 -12.14453125 16.05175781 C-15.63440611 19.71612641 -19.03548617 23.4605516 -22.4453125 27.19921875 C-24.18293172 29.10422331 -25.92802609 31.00243051 -27.6796875 32.89453125 C-28.50726563 33.79558594 -29.33484375 34.69664062 -30.1875 35.625 C-30.92355469 36.42164063 -31.65960938 37.21828125 -32.41796875 38.0390625 C-34.20930132 39.83950638 -34.20930132 39.83950638 -34 42 C-35.485 42.495 -35.485 42.495 -37 43 C-37 40 -37 40 -35.71484375 38.45703125 C-35.12832031 37.91433594 -34.54179687 37.37164062 -33.9375 36.8125 C-31.47931437 34.45673877 -29.14860024 32.08901788 -26.9375 29.5 C-23.43888308 25.44065666 -19.78991521 21.53343439 -16.125 17.625 C-10.67646358 11.81327605 -5.29456717 5.95288637 0 0 Z " fill="#0066F7" transform="translate(185,398)"/>
<path d="M0 0 C0.33 0.66 0.66 1.32 1 2 C2.97470346 2.28210049 4.95433364 2.53998136 6.94140625 2.71484375 C9.31442759 2.93608329 11.66439325 3.20090748 14.02734375 3.50390625 C20.97731344 4.38979364 27.75335881 5.18483611 34.7734375 5.00390625 C38.557144 4.99726817 42.25104402 5.51626374 46 6 C46 6.33 46 6.66 46 7 C19.81625725 7.38392585 19.81625725 7.38392585 8.8671875 5.4453125 C4.57106479 4.77806728 0.33441398 4.82023168 -4 5 C-2.68 3.35 -1.36 1.7 0 0 Z " fill="#0455D5" transform="translate(225,354)"/>
<path d="M0 0 C0.33 0.66 0.66 1.32 1 2 C1.66 2 2.32 2 3 2 C2.49822465 6.34871974 -0.02522015 8.95603922 -3 12 C-4.32 12 -5.64 12 -7 12 C-7.33 10.02 -7.66 8.04 -8 6 C-5.36 4.02 -2.72 2.04 0 0 Z " fill="#037BFA" transform="translate(467,75)"/>
<path d="M0 0 C0.54269531 0.42152344 1.08539063 0.84304687 1.64453125 1.27734375 C2.35996094 1.82519531 3.07539063 2.37304688 3.8125 2.9375 C4.87404297 3.75541016 4.87404297 3.75541016 5.95703125 4.58984375 C8.04125052 6.16856248 8.04125052 6.16856248 11 7 C11.83984375 9.16796875 11.83984375 9.16796875 12 12 C10.21785911 14.06559477 8.64463635 15.61305376 6.5625 17.3125 C6.03333984 17.76689453 5.50417969 18.22128906 4.95898438 18.68945312 C3.65204398 19.80800572 2.32760479 20.90605365 1 22 C0.01 21.67 -0.98 21.34 -2 21 C2.57274827 16.30023095 2.57274827 16.30023095 5.3125 14.375 C6.1478125 13.694375 6.1478125 13.694375 7 13 C7 12.01 7 11.02 7 10 C6.34 9.67 5.68 9.34 5 9 C5 8.34 5 7.68 5 7 C4.01 6.67 3.02 6.34 2 6 C2 5.34 2 4.68 2 4 C0.54166642 2.37485532 0.54166642 2.37485532 -1 1 C-0.67 0.67 -0.34 0.34 0 0 Z " fill="#047DF4" transform="translate(407,65)"/>
<path d="M0 0 C-19.81759468 5.40708484 -19.81759468 5.40708484 -28 5 C-28.99 4.34 -29.98 3.68 -31 3 C-29.35 2.34 -27.7 1.68 -26 1 C-26 1.66 -26 2.32 -26 3 C-25.01 2.34 -24.02 1.68 -23 1 C-20.71682928 0.72792683 -18.42149176 0.55159631 -16.125 0.4375 C-11.17903453 0.19573801 -11.17903453 0.19573801 -6.3046875 -0.58984375 C-3.84289081 -1.02796011 -2.34985498 -0.78328499 0 0 Z " fill="#0652D5" transform="translate(315,462)"/>
<path d="M0 0 C0.66 0.33 1.32 0.66 2 1 C-4.73733597 7.33605264 -11.46897694 13.55565306 -18.7734375 19.2421875 C-20.91333619 20.9315812 -22.95852044 22.69375265 -25 24.5 C-28 27 -28 27 -30 27 C-30 26.34 -30 25.68 -30 25 C-28.3594214 23.80977631 -26.71444737 22.62319969 -25.01953125 21.51171875 C-22.42684033 19.57096172 -20.28485857 17.29489455 -18 15 C-15.87004399 13.10162719 -13.68840812 11.26794345 -11.5 9.4375 C-10.94441406 8.96892578 -10.38882812 8.50035156 -9.81640625 8.01757812 C-6.58177304 5.29668078 -3.31228706 2.62634702 0 0 Z " fill="#0538B8" transform="translate(282,228)"/>
<path d="M0 0 C7.79938041 4.69169692 15.37858945 9.71158108 22 16 C22 16.66 22 17.32 22 18 C17.74870739 16.53861816 14.57189193 14.39831084 11 11.6875 C9.989375 10.92824219 8.97875 10.16898438 7.9375 9.38671875 C5.08260104 7.06711334 2.47763926 4.7190269 0 2 C0 1.34 0 0.68 0 0 Z " fill="#027DF4" transform="translate(383,47)"/>
<path d="M0 0 C0.33 0.99 0.66 1.98 1 3 C-3.73570504 7.92513324 -8.21256858 12.36603143 -14 16 C-15.36886951 17.29682374 -16.7169291 18.61823134 -18 20 C-18.66 19.67 -19.32 19.34 -20 19 C-18.73421912 15.20265737 -17.06527709 14.21091952 -13.9375 11.75 C-9.17606128 7.95203778 -4.54658461 4.05154102 0 0 Z " fill="#034FE0" transform="translate(359,163)"/>
<path d="M0 0 C0 3 0 3 -2.1328125 5.3828125 C-3.11941024 6.30851958 -4.11771512 7.2218467 -5.125 8.125 C-5.91958618 8.84707642 -5.91958618 8.84707642 -6.73022461 9.58374023 C-12.66679928 14.82321386 -19.24731484 18.9088259 -26 23 C-26.99 23.66 -27.98 24.32 -29 25 C-31.1875 24.625 -31.1875 24.625 -33 24 C-31.65808594 23.27296875 -31.65808594 23.27296875 -30.2890625 22.53125 C-18.97123038 16.29819547 -9.56114514 8.68355211 0 0 Z " fill="#0472E9" transform="translate(340,325)"/>
<path d="M0 0 C2.97 0.495 2.97 0.495 6 1 C6 1.66 6 2.32 6 3 C10.29 3 14.58 3 19 3 C19 3.66 19 4.32 19 5 C14.05174743 6.16384134 10.0034276 5.67338225 5.125 4.5625 C4.43664062 4.41490234 3.74828125 4.26730469 3.0390625 4.11523438 C1.35725971 3.75317961 -0.32169534 3.37793884 -2 3 C-1.34 2.01 -0.68 1.02 0 0 Z " fill="#0646CB" transform="translate(203,460)"/>
<path d="M0 0 C5.47932789 1.54545146 10.11429181 4.15543212 15 7 C14.01 7.99 13.02 8.98 12 10 C9.99246302 8.90959673 7.99411249 7.80226428 6 6.6875 C4.88625 6.07261719 3.7725 5.45773438 2.625 4.82421875 C1.75875 4.22222656 0.8925 3.62023438 0 3 C0 2.01 0 1.02 0 0 Z " fill="#0471F0" transform="translate(359,34)"/>
<path d="M0 0 C0.66 0 1.32 0 2 0 C0.63903054 3.01653903 -0.91571284 5.20305952 -3.1875 7.6015625 C-3.80367188 8.25640625 -4.41984375 8.91125 -5.0546875 9.5859375 C-5.69664062 10.25882813 -6.33859375 10.93171875 -7 11.625 C-7.64195312 12.305625 -8.28390625 12.98625 -8.9453125 13.6875 C-11.27252363 16.15103312 -13.60358594 18.60358594 -16 21 C-15.42676569 17.13066838 -13.61046448 14.84777943 -11 12 C-10.34 12 -9.68 12 -9 12 C-8.773125 11.46375 -8.54625 10.9275 -8.3125 10.375 C-6.13580327 6.43621544 -3.17970856 3.17970856 0 0 Z " fill="#0054F6" transform="translate(394,163)"/>
<path d="M0 0 C0.66 0 1.32 0 2 0 C1.79503906 1.09957031 1.59007812 2.19914063 1.37890625 3.33203125 C-0.12560098 11.54037736 -1.47749439 19.65792767 -2 28 C-2.33 28 -2.66 28 -3 28 C-4.76820914 17.85201709 -2.85918472 9.66968909 0 0 Z " fill="#0733BE" transform="translate(136,197)"/>
<path d="M0 0 C0.66 0.66 1.32 1.32 2 2 C-3.94 7.445 -3.94 7.445 -10 13 C-10.66 12.67 -11.32 12.34 -12 12 C-10.68842484 8.06527452 -8.66616553 6.87316576 -5.4375 4.3125 C-4.42558594 3.50425781 -3.41367187 2.69601563 -2.37109375 1.86328125 C-1.58863281 1.24839844 -0.80617188 0.63351563 0 0 Z " fill="#0256EA" transform="translate(377,148)"/>
<path d="M0 0 C-1.50349377 3.66786393 -3.63728792 5.68910393 -6.625 8.25 C-7.44226563 8.95640625 -8.25953125 9.6628125 -9.1015625 10.390625 C-9.72804688 10.92171875 -10.35453125 11.4528125 -11 12 C-11.66 11.67 -12.32 11.34 -13 11 C-11.49762109 7.17576278 -9.26701055 5.41136493 -6 3 C-5.278125 2.4225 -4.55625 1.845 -3.8125 1.25 C-2 0 -2 0 0 0 Z " fill="#0275F4" transform="translate(404,88)"/>
<path d="M0 0 C0.66 0 1.32 0 2 0 C1.522024 4.30178403 -0.96651909 6.09840957 -4 9 C-6.37005509 11.63503019 -8.68755214 14.31436171 -11 17 C-11.33 16.01 -11.66 15.02 -12 14 C-11.195625 13.236875 -10.39125 12.47375 -9.5625 11.6875 C-6.83200976 9.20569102 -6.83200976 9.20569102 -6 6 C-4.35360035 4.64172029 -2.68704193 3.30745749 -1 2 C-0.67 1.34 -0.34 0.68 0 0 Z " fill="#0165F7" transform="translate(442,108)"/>
<path d="M0 0 C0 4.3153922 -2.64721449 6.13611683 -5.5 9.0625 C-9.40188991 12.49017655 -9.40188991 12.49017655 -11 17 C-11.99 17.33 -12.98 17.66 -14 18 C-14 15 -14 15 -12.71484375 13.45703125 C-11.83505859 12.64298828 -11.83505859 12.64298828 -10.9375 11.8125 C-7.03279346 8.08310681 -3.50579513 4.10252621 0 0 Z " fill="#0056EF" transform="translate(162,423)"/>
<path d="M0 0 C0 0.66 0 1.32 0 2 C-0.99 2 -1.98 2 -3 2 C-3 3.98 -3 5.96 -3 8 C-3.33 7.34 -3.66 6.68 -4 6 C-7.62326739 4.7922442 -8.64146369 5.45688872 -12 7 C-8.5063473 3.20689136 -5.42241937 0 0 0 Z " fill="#096EF3" transform="translate(474,71)"/>
<path d="M0 0 C0.33 0.99 0.66 1.98 1 3 C-1.97 5.97 -4.94 8.94 -8 12 C-8.66 11.67 -9.32 11.34 -10 11 C-7.64119167 7.64800922 -4.93234873 4.8571603 -2 2 C-1.34 1.34 -0.68 0.68 0 0 Z " fill="#0158ED" transform="translate(359,163)"/>
<path d="M0 0 C2 4 2 4 2 6 C2.66 6.33 3.32 6.66 4 7 C4.29296875 13.0546875 4.29296875 13.0546875 4 15 C3.01 15.66 2.02 16.32 1 17 C0.67 11.39 0.34 5.78 0 0 Z " fill="#032CC8" transform="translate(15,209)"/>
<path d="M0 0 C1.19098158 3.57294475 0.6850378 4.82533214 -0.375 8.375 C-1.41526816 11.90413404 -2.32885594 15.38108597 -3 19 C-3.99 19 -4.98 19 -6 19 C-4.3186083 12.51292846 -2.46937673 6.2322365 0 0 Z " fill="#0131D9" transform="translate(30,155)"/>
<path d="M0 0 C4.42871657 2.21435828 6.54300595 4.72301036 9 9 C9 9.66 9 10.32 9 11 C9.66 11.33 10.32 11.66 11 12 C10.34 12 9.68 12 9 12 C8.67 12.66 8.34 13.32 8 14 C7.731875 13.236875 7.46375 12.47375 7.1875 11.6875 C6.02021744 9.04575527 5.07942969 7.91307531 3 6 C0 2.33333333 0 2.33333333 0 0 Z " fill="#05C2F9" transform="translate(444,119)"/>
<path d="M0 0 C0.33 0.66 0.66 1.32 1 2 C-6.29840547 10.44646925 -6.29840547 10.44646925 -10 14 C-10.66 13.67 -11.32 13.34 -12 13 C-11.55269531 12.56429688 -11.10539063 12.12859375 -10.64453125 11.6796875 C-6.85478464 7.94650427 -3.33540417 4.143987 0 0 Z " fill="#0079F8" transform="translate(220,359)"/>
<path d="M0 0 C0 3 0 3 -2.40625 5.48046875 C-3.43005231 6.39125392 -4.46167034 7.29331192 -5.5 8.1875 C-6.02464844 8.65091797 -6.54929687 9.11433594 -7.08984375 9.59179688 C-8.38666224 10.735355 -9.69249867 11.86867174 -11 13 C-11.66 12.67 -12.32 12.34 -13 12 C-9.89851315 8.01237405 -7.46449274 5.46721967 -3 3 C-1.24850835 1.41754725 -1.24850835 1.41754725 0 0 Z " fill="#031995" transform="translate(107,344)"/>
<path d="M0 0 C0.99 0.66 1.98 1.32 3 2 C2.34 2 1.68 2 1 2 C0.67 2.99 0.34 3.98 0 5 C-2.0625 6.1875 -2.0625 6.1875 -4 7 C-4.33 6.01 -4.66 5.02 -5 4 C-3.35 2.68 -1.7 1.36 0 0 Z M-6 7 C-5.34 7.33 -4.68 7.66 -4 8 C-5.98 8.99 -5.98 8.99 -8 10 C-7.34 9.01 -6.68 8.02 -6 7 Z " fill="#0161F6" transform="translate(397,131)"/>
<path d="M0 0 C4.37243229 -0.37815631 6.65147145 0.65694173 10.3125 3 C11.19550781 3.556875 12.07851562 4.11375 12.98828125 4.6875 C13.65214844 5.120625 14.31601563 5.55375 15 6 C12 7 12 7 9.08203125 5.78515625 C7.46361328 4.93244141 7.46361328 4.93244141 5.8125 4.0625 C4.72582031 3.49660156 3.63914063 2.93070312 2.51953125 2.34765625 C1.68808594 1.90292969 0.85664063 1.45820313 0 1 C0 0.67 0 0.34 0 0 Z " fill="#0535AC" transform="translate(146,441)"/>
<path d="M0 0 C1.32 0.33 2.64 0.66 4 1 C4.04898437 1.78246094 4.09796875 2.56492187 4.1484375 3.37109375 C4.22320313 4.38300781 4.29796875 5.39492188 4.375 6.4375 C4.47941406 7.95150391 4.47941406 7.95150391 4.5859375 9.49609375 C4.72257812 10.32238281 4.85921875 11.14867187 5 12 C5.66 12.33 6.32 12.66 7 13 C6.34 13.66 5.68 14.32 5 15 C4.35163958 13.25093469 3.70641216 11.50070781 3.0625 9.75 C2.70285156 8.77546875 2.34320312 7.8009375 1.97265625 6.796875 C1.18620345 4.53542839 0.52748399 2.33203448 0 0 Z " fill="#002CCF" transform="translate(24,294)"/>
<path d="M0 0 C0.66 0.33 1.32 0.66 2 1 C-1.63 4.3 -5.26 7.6 -9 11 C-9.66 10.34 -10.32 9.68 -11 9 C-7.37 6.03 -3.74 3.06 0 0 Z " fill="#0434AE" transform="translate(249,256)"/>
<path d="M0 0 C2.97 0.99 5.94 1.98 9 3 C8.67 3.99 8.34 4.98 8 6 C5.36 5.01 2.72 4.02 0 3 C0 2.01 0 1.02 0 0 Z " fill="#0272F2" transform="translate(338,25)"/>
<path d="M0 0 C0.33 0.66 0.66 1.32 1 2 C3.12576782 2.46651207 3.12576782 2.46651207 5.5625 2.625 C6.38878906 2.69976562 7.21507812 2.77453125 8.06640625 2.8515625 C8.70449219 2.90054687 9.34257812 2.94953125 10 3 C6.78817851 4.90608098 4.46117397 5.22266247 0.75 5.125 C-0.14203125 5.10695313 -1.0340625 5.08890625 -1.953125 5.0703125 C-2.96632812 5.03550781 -2.96632812 5.03550781 -4 5 C-2.68 3.35 -1.36 1.7 0 0 Z " fill="#0365E3" transform="translate(225,354)"/>
<path d="M0 0 C0.99 0.495 0.99 0.495 2 1 C3.10850248 5.66534956 3.34383934 10.37122006 2 15 C-0.02558881 11.65060119 -0.21738987 9.13037449 -0.125 5.25 C-0.09792969 3.77273437 -0.09792969 3.77273437 -0.0703125 2.265625 C-0.04710937 1.51796875 -0.02390625 0.7703125 0 0 Z " fill="#012CCF" transform="translate(16,239)"/>
<path d="M0 0 C3 3 3 3 3.29296875 6.79296875 C3.2730801 8.25809933 3.23737968 9.72308367 3.1875 11.1875 C3.16719727 12.31188477 3.16719727 12.31188477 3.14648438 13.45898438 C3.11118539 15.30629767 3.05737917 17.15324066 3 19 C2.34 19 1.68 19 1 19 C0.67 12.73 0.34 6.46 0 0 Z " fill="#00D4FE" transform="translate(372,221)"/>
<path d="M0 0 C0.66 0.33 1.32 0.66 2 1 C0.66958425 10.17286652 0.66958425 10.17286652 -2.125 13.625 C-2.74375 14.07875 -3.3625 14.5325 -4 15 C-2.9318153 9.88634986 -1.76892524 4.92772031 0 0 Z " fill="#00B9FE" transform="translate(368,276)"/>
<path d="M0 0 C0.66 0.99 1.32 1.98 2 3 C-0.68841859 5.25245881 -2.64641875 6.88213958 -6 8 C-6 5 -6 5 -4.6875 3.61328125 C-3.125 2.40885417 -1.5625 1.20442708 0 0 Z " fill="#0154E1" transform="translate(330,234)"/>
<path d="M0 0 C1.485 0.99 1.485 0.99 3 2 C3 2.66 3 3.32 3 4 C3.66 4 4.32 4 5 4 C5.33 5.32 5.66 6.64 6 8 C5.01 8.33 4.02 8.66 3 9 C1.35173889 6.03312999 0.55728913 3.34373475 0 0 Z " fill="#0327BA" transform="translate(44,339)"/>
<path d="M0 0 C0.66 0.33 1.32 0.66 2 1 C0.02 3.31 -1.96 5.62 -4 8 C-5.32 7.67 -6.64 7.34 -8 7 C-5.36 4.69 -2.72 2.38 0 0 Z " fill="#0152F3" transform="translate(368,193)"/>
<path d="M0 0 C2.64 0.66 5.28 1.32 8 2 C7.67 2.66 7.34 3.32 7 4 C4.69 3.67 2.38 3.34 0 3 C0 2.01 0 1.02 0 0 Z " fill="#056DEF" transform="translate(320,19)"/>
<path d="M0 0 C0 3 0 3 -1.3125 4.60546875 C-1.869375 5.12753906 -2.42625 5.64960938 -3 6.1875 C-3.556875 6.71730469 -4.11375 7.24710937 -4.6875 7.79296875 C-5.120625 8.19128906 -5.55375 8.58960938 -6 9 C-6.99 8.67 -7.98 8.34 -9 8 C-6.03 5.36 -3.06 2.72 0 0 Z " fill="#037CF1" transform="translate(340,325)"/>
<path d="M0 0 C1.98 0 3.96 0 6 0 C6.66 1.65 7.32 3.3 8 5 C2.25 3.375 2.25 3.375 0 0 Z " fill="#07298C" transform="translate(130,431)"/>
<path d="M0 0 C0.66 0.99 1.32 1.98 2 3 C0.6875 4.5 0.6875 4.5 -1 6 C-1.99 6 -2.98 6 -4 6 C-2.25 1.125 -2.25 1.125 0 0 Z " fill="#0372F3" transform="translate(384,103)"/>
<path d="M0 0 C6.75 0.75 6.75 0.75 9 3 C8.01 3.66 7.02 4.32 6 5 C3.98079663 3.69593116 1.98075027 2.36176581 0 1 C0 0.67 0 0.34 0 0 Z " fill="#017CF7" transform="translate(365,39)"/>
<path d="M0 0 C1.98 0.66 3.96 1.32 6 2 C5.67 2.99 5.34 3.98 5 5 C3.02 4.34 1.04 3.68 -1 3 C-0.67 2.01 -0.34 1.02 0 0 Z " fill="#0273F4" transform="translate(351,30)"/>
<path d="M0 0 C0.66 0.33 1.32 0.66 2 1 C1.01 1 0.02 1 -1 1 C-0.67 0.67 -0.34 0.34 0 0 Z M-5 2 C-2.9375 2.4375 -2.9375 2.4375 -1 3 C-3.475 4.485 -3.475 4.485 -6 6 C-6 3 -6 3 -5 2 Z " fill="#022B9C" transform="translate(112,373)"/>
<path d="M0 0 C0.99 0.33 1.98 0.66 3 1 C2.01 2.485 2.01 2.485 1 4 C0.34 4 -0.32 4 -1 4 C-1 4.66 -1 5.32 -1 6 C-1.66 5.67 -2.32 5.34 -3 5 C-1.125 1.125 -1.125 1.125 0 0 Z " fill="#032A97" transform="translate(127,358)"/>
<path d="M0 0 C0.33 0.66 0.66 1.32 1 2 C0.01 1.67 -0.98 1.34 -2 1 C-1.34 0.67 -0.68 0.34 0 0 Z " fill="#0764EC" transform="translate(232,7)"/>
<path d="M0 0 C3 1 3 1 3 1 Z " fill="#0C37A7" transform="translate(84,391)"/>
<path d="" fill="#10C2FB" transform="translate(0,0)"/>
<path d="M0 0 C2 1 2 1 2 1 Z " fill="#0C71EA" transform="translate(320,462)"/>
<path d="M0 0 C2 1 2 1 2 1 Z " fill="#0873E8" transform="translate(231,355)"/>
<path d="" fill="#12AAF6" transform="translate(0,0)"/>
<path d="" fill="#10AAF7" transform="translate(0,0)"/>
<path d="" fill="#15C4FA" transform="translate(0,0)"/>
<path d="" fill="#12C6FB" transform="translate(0,0)"/>
<path d="" fill="#0886FA" transform="translate(0,0)"/>
<path d="M0 0 C2 1 2 1 2 1 Z " fill="#0987FB" transform="translate(417,111)"/>
<path d="M0 0 C2 1 2 1 2 1 Z " fill="#1499F3" transform="translate(452,102)"/>
<path d="" fill="#0B42D0" transform="translate(0,0)"/>
<path d="" fill="#0D8CF7" transform="translate(0,0)"/>
<path d="M0 0 C2 1 2 1 2 1 Z " fill="#0753E5" transform="translate(160,24)"/>
<path d="" fill="#2C6DA9" transform="translate(0,0)"/>
<path d="" fill="#0A65E0" transform="translate(0,0)"/>
<path d="" fill="#0865DF" transform="translate(0,0)"/>
<path d="" fill="#0968E3" transform="translate(0,0)"/>
<path d="" fill="#296EB0" transform="translate(0,0)"/>
<path d="" fill="#0E5DDA" transform="translate(0,0)"/>
<path d="" fill="#105FD9" transform="translate(0,0)"/>
<path d="" fill="#405171" transform="translate(0,0)"/>
<path d="" fill="#47556E" transform="translate(0,0)"/>
<path d="" fill="#0A5BD8" transform="translate(0,0)"/>
<path d="" fill="#086EE5" transform="translate(0,0)"/>
<path d="" fill="#2970B5" transform="translate(0,0)"/>
<path d="" fill="#47536F" transform="translate(0,0)"/>
<path d="" fill="#0B77EC" transform="translate(0,0)"/>
<path d="" fill="#2773BB" transform="translate(0,0)"/>
<path d="" fill="#0F75EA" transform="translate(0,0)"/>
<path d="" fill="#3572A7" transform="translate(0,0)"/>
<path d="" fill="#0E51C6" transform="translate(0,0)"/>
<path d="" fill="#2676C1" transform="translate(0,0)"/>
<path d="" fill="#3674AA" transform="translate(0,0)"/>
<path d="" fill="#0B42B2" transform="translate(0,0)"/>
<path d="" fill="#2378C9" transform="translate(0,0)"/>
<path d="" fill="#3377AF" transform="translate(0,0)"/>
<path d="" fill="#247ACB" transform="translate(0,0)"/>
<path d="" fill="#103EA7" transform="translate(0,0)"/>
<path d="" fill="#217BCE" transform="translate(0,0)"/>
<path d="" fill="#0E3BA5" transform="translate(0,0)"/>
<path d="" fill="#103FA6" transform="translate(0,0)"/>
<path d="" fill="#3378B4" transform="translate(0,0)"/>
<path d="" fill="#0D3DA5" transform="translate(0,0)"/>
<path d="" fill="#1E7FD5" transform="translate(0,0)"/>
<path d="" fill="#334A80" transform="translate(0,0)"/>
<path d="" fill="#0937A0" transform="translate(0,0)"/>
<path d="" fill="#1188EE" transform="translate(0,0)"/>
<path d="" fill="#1188EE" transform="translate(0,0)"/>
<path d="" fill="#0B39AA" transform="translate(0,0)"/>
<path d="" fill="#138AED" transform="translate(0,0)"/>
<path d="" fill="#0A8EF3" transform="translate(0,0)"/>
<path d="" fill="#0636BC" transform="translate(0,0)"/>
<path d="" fill="#0937BA" transform="translate(0,0)"/>
<path d="" fill="#0A35B6" transform="translate(0,0)"/>
<path d="" fill="#268DD6" transform="translate(0,0)"/>
<path d="" fill="#0B39B7" transform="translate(0,0)"/>
<path d="" fill="#0638B5" transform="translate(0,0)"/>
<path d="" fill="#248FDB" transform="translate(0,0)"/>
<path d="" fill="#0F93F2" transform="translate(0,0)"/>
<path d="" fill="#0639B2" transform="translate(0,0)"/>
<path d="" fill="#0738B2" transform="translate(0,0)"/>
<path d="" fill="#0A37BB" transform="translate(0,0)"/>
<path d="" fill="#0878E7" transform="translate(0,0)"/>
<path d="" fill="#0591F8" transform="translate(0,0)"/>
<path d="" fill="#0B36B7" transform="translate(0,0)"/>
<path d="" fill="#0692F8" transform="translate(0,0)"/>
<path d="" fill="#096FE0" transform="translate(0,0)"/>
<path d="" fill="#109CF3" transform="translate(0,0)"/>
<path d="" fill="#0B35BE" transform="translate(0,0)"/>
<path d="" fill="#0834BA" transform="translate(0,0)"/>
<path d="" fill="#0698FA" transform="translate(0,0)"/>
<path d="" fill="#0836BC" transform="translate(0,0)"/>
<path d="" fill="#055AD5" transform="translate(0,0)"/>
<path d="" fill="#0B9BF8" transform="translate(0,0)"/>
<path d="" fill="#079BF9" transform="translate(0,0)"/>
<path d="" fill="#0A35BC" transform="translate(0,0)"/>
<path d="" fill="#109FF6" transform="translate(0,0)"/>
<path d="" fill="#0832BD" transform="translate(0,0)"/>
<path d="" fill="#0935BC" transform="translate(0,0)"/>
<path d="" fill="#053DCD" transform="translate(0,0)"/>
<path d="" fill="#043ECF" transform="translate(0,0)"/>
<path d="" fill="#16A7F7" transform="translate(0,0)"/>
<path d="" fill="#14A9F6" transform="translate(0,0)"/>
<path d="" fill="#17A9F4" transform="translate(0,0)"/>
<path d="" fill="#06AAFC" transform="translate(0,0)"/>
<path d="" fill="#10AAF8" transform="translate(0,0)"/>
<path d="" fill="#0B46C8" transform="translate(0,0)"/>
<path d="" fill="#10AEF8" transform="translate(0,0)"/>
<path d="" fill="#0743D3" transform="translate(0,0)"/>
<path d="" fill="#0A35BB" transform="translate(0,0)"/>
<path d="" fill="#0D4AC8" transform="translate(0,0)"/>
<path d="" fill="#134DC7" transform="translate(0,0)"/>
<path d="" fill="#0C4DCB" transform="translate(0,0)"/>
<path d="" fill="#0B37C3" transform="translate(0,0)"/>
<path d="" fill="#0B52D2" transform="translate(0,0)"/>
<path d="" fill="#0979EF" transform="translate(0,0)"/>
<path d="" fill="#097AF0" transform="translate(0,0)"/>
<path d="" fill="#0746DA" transform="translate(0,0)"/>
<path d="" fill="#0A39C4" transform="translate(0,0)"/>
<path d="" fill="#0C5AD6" transform="translate(0,0)"/>
<path d="" fill="#0D5FDA" transform="translate(0,0)"/>
<path d="" fill="#0FC0FB" transform="translate(0,0)"/>
<path d="" fill="#09B5FC" transform="translate(0,0)"/>
<path d="" fill="#12C0FC" transform="translate(0,0)"/>
<path d="" fill="#0A90F9" transform="translate(0,0)"/>
<path d="" fill="#0BA2F8" transform="translate(0,0)"/>
<path d="" fill="#0A6CE6" transform="translate(0,0)"/>
<path d="" fill="#0B6CE7" transform="translate(0,0)"/>
<path d="" fill="#0D6AE8" transform="translate(0,0)"/>
<path d="" fill="#054AE3" transform="translate(0,0)"/>
<path d="" fill="#13C2FC" transform="translate(0,0)"/>
<path d="" fill="#17C2FB" transform="translate(0,0)"/>
<path d="" fill="#0C6CE9" transform="translate(0,0)"/>
<path d="" fill="#12C3FA" transform="translate(0,0)"/>
<path d="" fill="#13C6FD" transform="translate(0,0)"/>
<path d="" fill="#14CAFC" transform="translate(0,0)"/>
<path d="" fill="#0FCFFC" transform="translate(0,0)"/>
<path d="" fill="#0A79F1" transform="translate(0,0)"/>
<path d="" fill="#087DF7" transform="translate(0,0)"/>
<path d="" fill="#0D3CCA" transform="translate(0,0)"/>
<path d="" fill="#10C1FA" transform="translate(0,0)"/>
<path d="" fill="#13C3FD" transform="translate(0,0)"/>
<path d="" fill="#11C6F9" transform="translate(0,0)"/>
<path d="" fill="#11C3F9" transform="translate(0,0)"/>
<path d="" fill="#0681F7" transform="translate(0,0)"/>
<path d="" fill="#077AF3" transform="translate(0,0)"/>
<path d="" fill="#11BEFB" transform="translate(0,0)"/>
<path d="" fill="#067AF7" transform="translate(0,0)"/>
<path d="" fill="#075CEF" transform="translate(0,0)"/>
<path d="" fill="#0577F4" transform="translate(0,0)"/>
<path d="" fill="#067DF9" transform="translate(0,0)"/>
<path d="" fill="#0978F7" transform="translate(0,0)"/>
<path d="" fill="#10BEFA" transform="translate(0,0)"/>
<path d="" fill="#0885FA" transform="translate(0,0)"/>
<path d="" fill="#077DF3" transform="translate(0,0)"/>
<path d="" fill="#11BAF8" transform="translate(0,0)"/>
<path d="" fill="#077FF5" transform="translate(0,0)"/>
<path d="" fill="#0372EE" transform="translate(0,0)"/>
<path d="" fill="#0661ED" transform="translate(0,0)"/>
<path d="" fill="#0570F2" transform="translate(0,0)"/>
<path d="" fill="#076CEE" transform="translate(0,0)"/>
<path d="" fill="#0A68ED" transform="translate(0,0)"/>
<path d="" fill="#0B41D0" transform="translate(0,0)"/>
<path d="" fill="#0787FA" transform="translate(0,0)"/>
<path d="" fill="#0F9CF6" transform="translate(0,0)"/>
<path d="" fill="#0389FA" transform="translate(0,0)"/>
<path d="" fill="#108EF8" transform="translate(0,0)"/>
<path d="" fill="#048CFC" transform="translate(0,0)"/>
<path d="" fill="#0D91F3" transform="translate(0,0)"/>
<path d="" fill="#058AFB" transform="translate(0,0)"/>
<path d="" fill="#1795F1" transform="translate(0,0)"/>
<path d="" fill="#0793F9" transform="translate(0,0)"/>
<path d="" fill="#0A44D4" transform="translate(0,0)"/>
<path d="" fill="#2F90D7" transform="translate(0,0)"/>
<path d="" fill="#218CE6" transform="translate(0,0)"/>
<path d="" fill="#334E92" transform="translate(0,0)"/>
<path d="" fill="#1F8BE8" transform="translate(0,0)"/>
<path d="" fill="#0E8CF6" transform="translate(0,0)"/>
<path d="" fill="#2A8EDD" transform="translate(0,0)"/>
<path d="" fill="#1C8BE9" transform="translate(0,0)"/>
<path d="" fill="#2F8CD8" transform="translate(0,0)"/>
<path d="" fill="#318AD3" transform="translate(0,0)"/>
<path d="" fill="#0A8BF4" transform="translate(0,0)"/>
<path d="" fill="#0D8BF6" transform="translate(0,0)"/>
<path d="" fill="#0B4ADA" transform="translate(0,0)"/>
<path d="" fill="#0A88FB" transform="translate(0,0)"/>
<path d="" fill="#0B49D6" transform="translate(0,0)"/>
<path d="" fill="#3B5389" transform="translate(0,0)"/>
<path d="" fill="#0546DD" transform="translate(0,0)"/>
<path d="" fill="#2A84CF" transform="translate(0,0)"/>
<path d="" fill="#094ADE" transform="translate(0,0)"/>
<path d="" fill="#3C5487" transform="translate(0,0)"/>
<path d="" fill="#0C85F2" transform="translate(0,0)"/>
<path d="" fill="#2F82C9" transform="translate(0,0)"/>
<path d="" fill="#0A85F3" transform="translate(0,0)"/>
<path d="" fill="#3180C3" transform="translate(0,0)"/>
<path d="" fill="#0757E5" transform="translate(0,0)"/>
<path d="" fill="#0676EE" transform="translate(0,0)"/>
<path d="" fill="#095EE4" transform="translate(0,0)"/>
<path d="" fill="#347DBB" transform="translate(0,0)"/>
<path d="" fill="#0969EC" transform="translate(0,0)"/>
<path d="" fill="#377BB5" transform="translate(0,0)"/>
</svg>
